<?xml version="1.0" encoding="UTF-8" standalone="no"?>
<svg
   width="32"
   height="32"
   viewBox="0 0 8.4666667 8.4666667"
   version="1.1"
   xmlns="http://www.w3.org/2000/svg"
   xmlns:svg="http://www.w3.org/2000/svg">
    <g
       aria-label="x86"
       id="text1353"
       style="font-size:10.5833px;line-height:1.25;font-family:'DejaVu Sans';-inkscape-font-specification:'DejaVu Sans';letter-spacing:0px;word-spacing:0px;stroke-width:0.264583">
      <path
         d="M 1.2459742,4.5492556 0.40044719,3.4044461 H 1.1936518 l 0.4792718,0.6948383 0.48555,-0.6948383 H 2.9516787 L 2.1061517,4.5450719 2.9935362,5.7484808 H 2.2003316 L 1.6729236,5.0075981 1.1517943,5.7484808 H 0.35858922 Z"
         style="font-weight:bold;-inkscape-font-specification:'DejaVu Sans Bold';stroke-width:0.107156"
         id="path54264" />
      <path
         d="m 4.2840108,4.350433 c -0.163245,0 -0.2999806,0.055809 -0.4102063,0.167431 -0.1088299,0.1102248 -0.1632449,0.2462603 -0.1632449,0.4081104 0,0.1158098 0.035579,0.2078946 0.1067369,0.2762627 0.071159,0.066975 0.1681289,0.1004602 0.2909119,0.1004602 0.1660358,0 0.3034689,-0.054416 0.4122989,-0.1632474 C 4.6293377,5.0292251 4.6837527,4.892489 4.6837527,4.7292457 4.6837527,4.6134359 4.6474769,4.5213511 4.5749223,4.452983 4.5037642,4.384615 4.4067939,4.350433 4.2840108,4.350433 Z M 3.7691602,4.0846355 C 3.6184723,4.0218484 3.5054562,3.9402247 3.4301125,3.8397685 3.3561635,3.7393082 3.319189,3.6186182 3.319189,3.4776985 c 0,-0.2832368 0.1158065,-0.5057843 0.3474196,-0.6676344 0.2330086,-0.1618502 0.5546159,-0.2427732 0.9648217,-0.2427732 0.3292812,0 0.5846139,0.06139 0.7659976,0.1841737 0.1813837,0.1227839 0.2720754,0.2957958 0.2720754,0.5190359 0,0.198126 -0.063484,0.3676509 -0.1904529,0.5085706 -0.1255731,0.1409198 -0.3055616,0.2427773 -0.5399654,0.3055644 0.1702219,0.065578 0.2957953,0.1534788 0.37672,0.2637036 0.080926,0.1102248 0.1213878,0.2497514 0.1213878,0.4185756 0,0.3209099 -0.1255731,0.5748489 -0.37672,0.7618131 C 4.8107214,5.715692 4.4674876,5.8091741 4.0307712,5.8091741 3.6861425,5.8091741 3.417555,5.7408061 3.2250091,5.60407 3.0338588,5.4659407 2.9382833,5.2740922 2.9382833,5.0285285 c 0,-0.2218468 0.073251,-0.4157892 0.2197534,-0.581823 0.1478975,-0.167431 0.3516052,-0.288121 0.6111235,-0.36207 z m 0.789019,-1.0108678 c -0.1423162,0 -0.2567275,0.041857 -0.3432334,0.1255743 -0.085111,0.08232 -0.1276666,0.1918485 -0.1276666,0.3285846 0,0.094879 0.030695,0.1716187 0.092087,0.2302182 0.062787,0.058599 0.1451071,0.087901 0.2469609,0.087901 0.1423166,0 0.2560301,-0.04116 0.3411408,-0.1234805 0.086506,-0.083718 0.1297592,-0.1939423 0.1297592,-0.3306784 0,-0.096273 -0.031392,-0.173012 -0.09418,-0.2302182 -0.061392,-0.0586 -0.143014,-0.087901 -0.2448679,-0.087901 z"
         style="font-style:oblique;font-weight:bold;-inkscape-font-specification:'DejaVu Sans Bold Oblique';fill:#2196f3;stroke-width:0.107156"
         id="path54266"
         />
      <path
         d="m 6.9486759,4.2060221 c -0.1590593,0 -0.2895159,0.065578 -0.3913702,0.1967328 -0.1018538,0.1311512 -0.1527809,0.2999795 -0.1527809,0.5064768 0,0.1241771 0.031391,0.2211503 0.09418,0.2909115 0.062787,0.068368 0.1499909,0.1025541 0.2616113,0.1025541 0.1576645,0 0.2874237,-0.06418 0.3892771,-0.1925451 0.1032495,-0.1297579 0.1548741,-0.2930053 0.1548741,-0.4897381 0,-0.1339457 -0.030695,-0.2364957 -0.092087,-0.3076542 C 7.1509888,4.2416014 7.0630876,4.2060221 6.9486759,4.2060221 Z M 8.227431,2.7054202 8.1144149,3.2830595 C 7.9944227,3.2216656 7.8779188,3.1756211 7.7649028,3.1449262 7.6518867,3.1142272 7.5388706,3.0988858 7.4258546,3.0988858 c -0.259518,0 -0.4695044,0.069761 -0.6299597,0.2092878 C 6.6354404,3.4477001 6.5377722,3.6437323 6.5028908,3.8962741 6.6117211,3.8251156 6.723342,3.7727936 6.8377529,3.7393082 c 0.1158065,-0.03487 0.2385895,-0.052322 0.3683483,-0.052322 0.2567278,0 0.4667147,0.076043 0.6299596,0.2281243 0.1632454,0.1520816 0.2448679,0.3460239 0.2448679,0.581823 0,0.3850943 -0.1262709,0.7011198 -0.3788127,0.9480807 C 7.4509694,5.690578 7.1272691,5.8133618 6.7310155,5.8133618 6.3752246,5.8133618 6.0996606,5.7129016 5.9043243,5.5119851 5.7089883,5.3096714 5.6113202,5.0243408 5.6113202,4.6559933 c 0,-0.284634 0.043253,-0.5560123 0.1297591,-0.814135 0.086506,-0.25952 0.2078934,-0.48276 0.3641627,-0.6697242 C 6.272673,2.9726108 6.4701024,2.8226231 6.6975293,2.7221629 6.9263519,2.6217026 7.1830798,2.5714745 7.4677125,2.5714745 c 0.1311544,0 0.2588206,0.011178 0.3829984,0.033494 0.1241783,0.022315 0.3767201,0.2350458 0.3767201,0.1004562 z"
         style="font-style:oblique;font-weight:bold;-inkscape-font-specification:'DejaVu Sans Bold Oblique';fill:#2196f3;stroke-width:0.107156"
         id="path54268"
         />
    </g>
</svg>
